<?xml version="1.0" standalone="no"?>
<!DOCTYPE svg PUBLIC "-//W3C//DTD SVG 20010904//EN"
 "http://www.w3.org/TR/2001/REC-SVG-20010904/DTD/svg10.dtd">
<svg version="1.0" xmlns="http://www.w3.org/2000/svg"
  viewBox="0 0 2560.000000 2560.000000"
 preserveAspectRatio="xMidYMid meet">

<g transform="translate(0.000000,2560.000000) scale(0.100000,-0.100000)"
fill="#fff" stroke="none">
<rect x="0" y="0" width="25600" height="25600" fill="#000"/>
<path d="M12573 17813 c-7 -2 -13 -20 -13 -38 0 -32 3 -35 43 -45 575 -144
1018 -524 1325 -1136 280 -559 447 -1276 521 -2244 40 -515 46 -715 46 -1535
0 -816 -2 -897 -45 -1465 -90 -1194 -325 -2143 -691 -2797 -170 -304 -388
-568 -616 -746 -77 -60 -93 -77 -93 -99 0 -16 3 -28 6 -28 15 0 181 45 284 77
1022 316 1776 1162 2200 2468 257 793 400 1800 400 2815 0 1406 -357 2748
-953 3589 -169 238 -384 472 -582 634 -369 301 -812 487 -1295 543 -117 13
-510 19 -537 7z"/>
<path d="M12085 17581 c-1146 -249 -1962 -1447 -2285 -3359 -103 -611 -146
-1209 -137 -1917 6 -511 28 -834 88 -1290 71 -544 217 -1123 400 -1585 67
-170 215 -469 310 -625 337 -557 812 -968 1354 -1171 283 -106 539 -157 897
-178 76 -4 77 -4 86 22 8 26 6 29 -92 81 -321 170 -610 448 -824 791 -439 705
-684 1735 -767 3230 -32 581 -35 1624 -6 2105 135 2181 483 3479 1023 3812 52
32 58 39 58 69 0 39 4 38 -105 15z"/>
</g>
</svg>
